<?xml version="1.0" encoding="utf-8"?>
<!-- Generator: Adobe Illustrator 25.2.0, SVG Export Plug-In . SVG Version: 6.00 Build 0)  -->
<svg version="1.1" id="Layer_1" xmlns="http://www.w3.org/2000/svg" xmlns:xlink="http://www.w3.org/1999/xlink" x="0px" y="0px"
	 viewBox="0 0 133.3 60.7" style="enable-background:new 0 0 133.3 60.7;" xml:space="preserve">
<style type="text/css">
	.st0{fill-rule:evenodd;clip-rule:evenodd;fill:#3D3D6B;}
	.st1{clip-path:url(#SVGID_2_);fill:#3D3D6B;}
	.st2{fill:#FFFFFF;}
	.st3{fill:#EB434A;}
</style>
<rect x="58" y="0" class="st0" width="74.9" height="28.6"/>
<g>
	<defs>
		<rect id="SVGID_1_" x="58" y="0" width="74.9" height="28.6"/>
	</defs>
	<clipPath id="SVGID_2_">
		<use xlink:href="#SVGID_1_"  style="overflow:visible;"/>
	</clipPath>
	<rect x="58" y="0" class="st1" width="75.3" height="28.9"/>
</g>
<polygon class="st2" points="67.8,7.5 73.1,7.5 73.9,10.7 75,14.6 75.1,14.6 76.3,10.7 77.1,7.5 82.1,7.5 82.9,10.7 84.1,14.7 
	84.2,14.7 85.3,10.7 86.2,7.5 91.4,7.5 87,22.1 81.7,22.1 80.8,18.9 79.6,14.9 79.6,14.9 78.4,18.9 77.5,22.1 72.2,22.1 "/>
<polygon class="st2" points="94.7,7.5 105.2,7.5 105.2,11.2 99.6,11.2 99.6,12.9 104.7,12.9 104.7,16.5 99.6,16.5 99.6,18.3 
	105.4,18.3 105.4,22.1 94.7,22.1 "/>
<path class="st2" d="M109.5,7.5h7.9c1.5,0,2.7,0.3,3.5,1c0.9,0.7,1.3,1.6,1.3,2.8c0,0.7-0.2,1.4-0.5,1.9c-0.3,0.6-0.8,1-1.3,1.4
	c0.7,0.3,1.2,0.7,1.6,1.3c0.4,0.6,0.6,1.3,0.6,2.1c0,0.8-0.2,1.5-0.6,2.1c-0.4,0.6-1,1.1-1.7,1.4s-1.6,0.5-2.6,0.5h-8.3V7.5z
	 M116.1,13.2c0.4,0,0.7-0.1,0.9-0.3c0.2-0.2,0.3-0.5,0.3-0.8c0-0.4-0.1-0.6-0.3-0.8c-0.2-0.2-0.5-0.3-0.9-0.3h-1.8v2.2H116.1z
	 M116.4,18.6c0.4,0,0.7-0.1,1-0.3c0.2-0.2,0.3-0.5,0.3-0.8c0-0.4-0.1-0.7-0.3-0.9c-0.2-0.2-0.6-0.3-1-0.3h-2v2.3H116.4z"/>
<path class="st3" d="M62,48c-1.2-0.6-2.1-1.5-2.7-2.7c-0.6-1.1-1-2.5-1-3.9c0-1.5,0.3-2.8,1-3.9c0.6-1.1,1.5-2,2.7-2.7
	c1.2-0.6,2.5-1,4-1c1.4,0,2.6,0.3,3.7,0.8c1.1,0.5,2,1.2,2.7,2.2c0.7,1,1.2,2.1,1.4,3.4h-4.9c-0.2-0.6-0.5-1-1-1.3
	c-0.5-0.3-1-0.5-1.6-0.5c-0.8,0-1.5,0.3-2,0.8c-0.5,0.6-0.8,1.3-0.8,2.2c0,0.9,0.3,1.6,0.8,2.2c0.5,0.6,1.2,0.8,2,0.8
	c0.6,0,1.2-0.2,1.7-0.5c0.5-0.3,0.8-0.8,1-1.4h4.9c-0.2,1.3-0.6,2.4-1.3,3.4c-0.7,1-1.6,1.7-2.8,2.3C68.7,48.7,67.4,49,66,49
	C64.5,49,63.2,48.7,62,48"/>
<path class="st3" d="M76.2,34.1h7.2c1.2,0,2.3,0.2,3.2,0.6c0.9,0.4,1.6,1,2.1,1.8c0.5,0.8,0.7,1.8,0.7,2.8c0,1-0.2,1.8-0.6,2.5
	c-0.4,0.7-0.9,1.3-1.6,1.8l2.4,4.9h-5.5l-1.7-3.9h-1.2v3.9h-5V34.1z M82.6,41.1c0.6,0,1-0.1,1.3-0.4c0.3-0.3,0.4-0.7,0.4-1.2
	c0-0.5-0.1-0.9-0.4-1.2c-0.3-0.3-0.7-0.4-1.3-0.4h-1.5v3.1H82.6z"/>
<path class="st3" d="M95.7,34.1h5.2l5.4,14.5h-5.3l-0.6-1.8h-4.3l-0.6,1.8h-5.2L95.7,34.1z M99.6,43.5l-1.3-4h-0.1l-1.3,4H99.6z"/>
<polygon class="st3" points="107.6,34.1 117.6,34.1 117.6,38.5 112.6,38.5 112.6,40.7 117.1,40.7 117.1,44.8 112.6,44.8 112.6,48.7 
	107.6,48.7 "/>
<polygon class="st3" points="123.3,38.7 119.1,38.7 119.1,34.1 132.6,34.1 132.6,38.7 128.3,38.7 128.3,48.7 123.3,48.7 "/>
<path class="st3" d="M67.4,59.8h-2L65,60.7h-0.6l1.7-3.8h0.5l1.7,3.8h-0.6L67.4,59.8z M67.2,59.3l-0.8-1.8l-0.8,1.8H67.2z"/>
<path class="st3" d="M78,58.8h0.5v1.5c-0.4,0.3-0.9,0.5-1.4,0.5c-1.2,0-2-0.8-2-1.9c0-1.1,0.8-1.9,2-1.9c0.6,0,1.1,0.2,1.4,0.6
	l-0.3,0.3c-0.3-0.3-0.7-0.4-1.1-0.4c-0.9,0-1.5,0.6-1.5,1.4c0,0.8,0.6,1.4,1.5,1.4c0.3,0,0.6-0.1,0.9-0.2V58.8z"/>
<polygon class="st3" points="88.7,60.2 88.7,60.7 86,60.7 86,56.9 88.6,56.9 88.6,57.4 86.5,57.4 86.5,58.6 88.4,58.6 88.4,59 
	86.5,59 86.5,60.2 "/>
<polygon class="st3" points="99.2,56.9 99.2,60.7 98.8,60.7 96.6,57.9 96.6,60.7 96,60.7 96,56.9 96.5,56.9 98.7,59.7 98.7,56.9 "/>
<path class="st3" d="M106.5,58.8c0-1.1,0.8-1.9,2-1.9c0.6,0,1.1,0.2,1.4,0.6l-0.3,0.3c-0.3-0.3-0.6-0.4-1.1-0.4
	c-0.9,0-1.5,0.6-1.5,1.4c0,0.8,0.6,1.4,1.5,1.4c0.4,0,0.8-0.1,1.1-0.5l0.3,0.3c-0.3,0.4-0.8,0.6-1.4,0.6
	C107.4,60.7,106.5,59.9,106.5,58.8"/>
<polygon class="st3" points="118.5,59.4 118.5,60.7 118,60.7 118,59.4 116.5,56.9 117.1,56.9 118.3,58.9 119.5,56.9 120,56.9 "/>
<polygon class="st3" points="48.8,11.1 46.3,25.4 44.2,37.1 29.2,52.1 33.7,26.7 38.5,0 "/>
<polyline class="st3" points="0,40.1 3.4,21.9 6,7.7 19.6,1 14.7,27.6 10.4,50.5 0,40.1 "/>
<polygon class="st3" points="33,15 28,41.6 25.2,56.1 20.6,60.7 13.4,53.5 15.4,42.8 19,23.8 "/>
</svg>
